<svg xmlns="http://www.w3.org/2000/svg" width="21" height="21" viewBox="0 0 21 21"><g><g><path fill="#0a494c" d="M14.639 12.09c-.248-.126-1.477-.73-1.707-.81-.23-.086-.396-.126-.562.126-.167.252-.644.81-.793.982-.144.166-.293.189-.54.063-1.468-.734-2.432-1.31-3.4-2.972-.257-.442.257-.41.734-1.365.081-.166.04-.31-.023-.437-.063-.126-.562-1.355-.77-1.855-.202-.486-.41-.418-.562-.427-.145-.01-.311-.01-.478-.01a.925.925 0 0 0-.666.311c-.23.252-.874.856-.874 2.085 0 1.23.896 2.418 1.018 2.585.126.166 1.76 2.688 4.269 3.773 1.585.685 2.206.743 2.999.626.481-.072 1.477-.603 1.684-1.189.207-.585.207-1.085.144-1.188-.059-.113-.225-.176-.473-.298zm-4.557 6.223c-1.495 0-2.958-.4-4.233-1.157l-.301-.18-3.143.824.837-3.066-.198-.316a8.281 8.281 0 0 1-1.27-4.422c0-4.579 3.729-8.307 8.313-8.307 2.22 0 4.304.864 5.871 2.436C17.525 5.696 18.49 7.78 18.485 10c0 4.584-3.823 8.312-8.403 8.312zm7.07-15.382A9.921 9.921 0 0 0 10.082 0C4.57 0 .086 4.485.086 9.996c0 1.761.459 3.481 1.332 4.999L0 20.173l5.3-1.391a9.966 9.966 0 0 0 4.778 1.215h.004c5.507 0 10.091-4.484 10.091-9.996 0-2.67-1.135-5.178-3.021-7.07z"/></g></g></svg>