<svg xmlns="http://www.w3.org/2000/svg" width="70" height="70" viewBox="0 0 70 70"><defs><mask id="9tttb" width="2" height="2" x="-1" y="-1"><path fill="#fff" d="M5 2h60v60H5z"/><path d="M5 32C5 15.431 18.431 2 35 2c16.569 0 30 13.431 30 30 0 16.569-13.431 30-30 30C18.431 62 5 48.569 5 32z"/></mask><filter id="9ttta" width="92" height="95" x="-11" y="-14" filterUnits="userSpaceOnUse"><feOffset dy="3" in="SourceGraphic" result="FeOffset1068Out"/><feGaussianBlur in="FeOffset1068Out" result="FeGaussianBlur1069Out" stdDeviation="2.4 2.4"/></filter></defs><g><g><g><g filter="url(#9ttta)"><path fill="none" d="M5 32C5 15.431 18.431 2 35 2c16.569 0 30 13.431 30 30 0 16.569-13.431 30-30 30C18.431 62 5 48.569 5 32z" mask="url(&quot;#9tttb&quot;)"/><path fill-opacity=".3" d="M5 32C5 15.431 18.431 2 35 2c16.569 0 30 13.431 30 30 0 16.569-13.431 30-30 30C18.431 62 5 48.569 5 32z"/></g><path fill="#0a494c" d="M5 32C5 15.431 18.431 2 35 2c16.569 0 30 13.431 30 30 0 16.569-13.431 30-30 30C18.431 62 5 48.569 5 32z"/></g><g><path fill="#f9f2e8" d="M34.772 30.976a4.206 4.206 0 0 1-4.204-4.204 4.206 4.206 0 0 1 4.204-4.204 4.206 4.206 0 0 1 4.204 4.204 4.206 4.206 0 0 1-4.204 4.204zm0-15.976A11.763 11.763 0 0 0 23 26.772c0 8.829 11.772 21.862 11.772 21.862s11.772-13.033 11.772-21.862A11.763 11.763 0 0 0 34.772 15z"/></g></g></g></svg>