<svg xmlns="http://www.w3.org/2000/svg" width="21" height="21" viewBox="0 0 21 21"><g><g><path fill="#0a494c" d="M9.02 2.816a6.37 6.37 0 0 1 6.4 6.4c0 1.689-.615 3.25-1.69 4.402l-.077.077c-.121.1-.232.212-.333.333-1.126 1.024-2.662 1.613-4.326 1.613a6.37 6.37 0 0 1-6.4-6.4 6.37 6.37 0 0 1 6.4-6.4zm0-2.56C4.079.256.06 4.275.06 9.216c0 4.94 4.019 8.959 8.96 8.959 1.51 0 2.995-.358 4.249-1.05.1.121.212.233.333.333l2.56 2.56a2.611 2.611 0 1 0 3.686-3.686l-2.56-2.56a2.56 2.56 0 0 0-.41-.333c.691-1.254 1.127-2.713 1.127-4.25 0-4.94-4.02-8.959-8.96-8.959z"/></g></g></svg>