<svg xmlns="http://www.w3.org/2000/svg" width="47" height="47" viewBox="0 0 47 47"><g><g><path fill="#fff" d="M34.106 28.169c-.577-.294-3.44-1.7-3.976-1.889-.535-.2-.923-.294-1.311.294-.388.587-1.5 1.888-1.846 2.287-.336.388-.682.44-1.26.147-3.42-1.71-5.665-3.053-7.92-6.924-.598-1.028.598-.955 1.71-3.18.189-.387.094-.723-.053-1.017-.146-.293-1.31-3.158-1.794-4.322-.472-1.133-.954-.976-1.31-.997-.337-.02-.725-.02-1.113-.02s-1.018.146-1.553.723c-.535.588-2.035 1.993-2.035 4.858 0 2.864 2.088 5.633 2.371 6.021.294.389 4.102 6.264 9.946 8.792 3.692 1.595 5.14 1.731 6.987 1.458 1.122-.168 3.44-1.406 3.923-2.77.483-1.363.483-2.528.336-2.77-.136-.261-.525-.408-1.102-.691zM23.49 42.667c-3.484 0-6.893-.934-9.862-2.696l-.703-.42-7.323 1.92 1.952-7.144-.462-.735A19.294 19.294 0 0 1 4.133 23.29c0-10.67 8.687-19.356 19.367-19.356 5.172 0 10.03 2.014 13.68 5.676 3.651 3.661 5.896 8.519 5.886 13.69 0 10.68-8.907 19.367-19.576 19.367zM39.96 6.83C35.565 2.423 29.71 0 23.49 0 10.648 0 .2 10.45.2 23.29c0 4.102 1.07 8.11 3.105 11.645L0 47l12.348-3.242a23.22 23.22 0 0 0 11.131 2.833h.01C36.32 46.59 47 36.14 47 23.3c0-6.222-2.644-12.065-7.04-16.471z"/></g></g></svg>