<svg xmlns="http://www.w3.org/2000/svg" width="24" height="18" viewBox="0 0 24 18"><g><g><g><path fill="none" stroke="#0a494c" stroke-linecap="round" stroke-linejoin="round" stroke-miterlimit="20" stroke-width="2" d="M22.545 3.328a2.745 2.745 0 0 0-1.916-1.975C18.931.938 12.137.938 12.137.938v0s-6.795 0-8.493.454a2.745 2.745 0 0 0-1.916 1.975 28.638 28.638 0 0 0-.454 5.224 28.639 28.639 0 0 0 .454 5.264c.263.923.99 1.642 1.916 1.896 1.698.454 8.493.454 8.493.454v0s6.794 0 8.492-.454a2.745 2.745 0 0 0 1.916-1.975c.309-1.711.46-3.446.454-5.185a28.639 28.639 0 0 0-.454-5.263z"/></g><g><path fill="none" stroke="#0a494c" stroke-linecap="round" stroke-linejoin="round" stroke-miterlimit="20" stroke-width="2" d="M9.915 11.82v0l5.678-3.229v0L9.915 5.362v0z"/></g></g></g></svg>